<svg xmlns="http://www.w3.org/2000/svg" viewBox="0 0 32 32">
  <defs>
    <style>
      .pixel { shape-rendering: crispEdges; }
    </style>
  </defs>
  <!-- Background -->
  <rect width="32" height="32" fill="#1e293b" rx="4"/>

  <!-- 8-bit pixel art style -->
  <g class="pixel">
    <!-- Pixel photo grid (3x3 photos) -->
    <rect x="6" y="6" width="5" height="5" fill="#4f46e5"/>
    <rect x="12" y="6" width="5" height="5" fill="#6366f1"/>
    <rect x="18" y="6" width="5" height="5" fill="#7c3aed"/>

    <rect x="6" y="12" width="5" height="5" fill="#6366f1"/>
    <rect x="12" y="12" width="5" height="5" fill="#7c3aed"/>
    <rect x="18" y="12" width="5" height="5" fill="#4f46e5"/>

    <rect x="6" y="18" width="5" height="5" fill="#7c3aed"/>
    <rect x="12" y="18" width="5" height="5" fill="#4f46e5"/>
    <rect x="18" y="18" width="5" height="5" fill="#6366f1"/>

    <!-- Speed/turbo lines (pixelated motion blur) -->
    <rect x="4" y="25" width="3" height="2" fill="#f59e0b" opacity="0.6"/>
    <rect x="8" y="25" width="4" height="2" fill="#f59e0b" opacity="0.8"/>
    <rect x="13" y="25" width="5" height="2" fill="#f59e0b"/>
    <rect x="19" y="25" width="6" height="2" fill="#f59e0b"/>

    <!-- Highlight pixels for retro glow effect -->
    <rect x="7" y="7" width="1" height="1" fill="#ffffff" opacity="0.7"/>
    <rect x="13" y="7" width="1" height="1" fill="#ffffff" opacity="0.7"/>
    <rect x="19" y="7" width="1" height="1" fill="#ffffff" opacity="0.7"/>
  </g>
</svg>
