<svg xmlns="http://www.w3.org/2000/svg" viewBox="0 0 32 32">
  <defs>
    <style>
      .pixel { shape-rendering: crispEdges; }
    </style>
  </defs>
  <!-- Background: deep charcoal -->
  <rect width="32" height="32" fill="#1e2228" rx="4"/>

  <g class="pixel">
    <!-- 3x3 photo grid: muted blue-gray primary -->
    <rect x="6" y="6" width="5" height="5" fill="#7b8fa8"/>
    <rect x="12" y="6" width="5" height="5" fill="#6e819a"/>
    <rect x="18" y="6" width="5" height="5" fill="#8596ac"/>

    <rect x="6" y="12" width="5" height="5" fill="#8596ac"/>
    <rect x="12" y="12" width="5" height="5" fill="#7b8fa8"/>
    <rect x="18" y="12" width="5" height="5" fill="#6e819a"/>

    <rect x="6" y="18" width="5" height="5" fill="#6e819a"/>
    <rect x="12" y="18" width="5" height="5" fill="#8596ac"/>
    <rect x="18" y="18" width="5" height="5" fill="#7b8fa8"/>

    <!-- Speed/turbo lines: warm muted gold -->
    <rect x="4" y="25" width="3" height="2" fill="#b89b5e" opacity="0.6"/>
    <rect x="8" y="25" width="4" height="2" fill="#b89b5e" opacity="0.8"/>
    <rect x="13" y="25" width="5" height="2" fill="#b89b5e"/>
    <rect x="19" y="25" width="6" height="2" fill="#b89b5e"/>

    <!-- Subtle highlight pixels -->
    <rect x="7" y="7" width="1" height="1" fill="#ffffff" opacity="0.4"/>
    <rect x="13" y="7" width="1" height="1" fill="#ffffff" opacity="0.4"/>
    <rect x="19" y="7" width="1" height="1" fill="#ffffff" opacity="0.4"/>
  </g>
</svg>
