<svg xmlns="http://www.w3.org/2000/svg" viewBox="0 0 32 32">
  <defs>
    <style>
      .shape { shape-rendering: geometricPrecision; }
    </style>
  </defs>
  <!-- Background: deep charcoal -->
  <rect width="32" height="32" fill="#1e2228" rx="4"/>

  <g class="shape">
    <!-- Outer lens ring: primary -->
    <path d="M16 4a12 12 0 1 0 0 24 12 12 0 0 0 0-24zm0 3a9 9 0 1 1 0 18 9 9 0 0 1 0-18z" fill="#4c759f"/>
    
    <!-- Inner aperture blades with hexagonal cutout: secondary -->
    <path d="M16 8a8 8 0 1 0 0 16 8 8 0 0 0 0-16zm0 3l4.3 2.5v5L16 21l-4.3-2.5v-5z" fill="#7392b3" fill-rule="evenodd"/>
    
    <!-- Accent highlight -->
    <circle cx="23.5" cy="8.5" r="1.5" fill="#d6a54d"/>
  </g>
</svg>