<svg xmlns="http://www.w3.org/2000/svg" viewBox="0 0 600 200">
  <!-- Background -->
  <rect width="600" height="200" fill="transparent"/>

  <!-- Centered group -->
  <g transform="translate(85, 50)">
    <!-- Icon background -->
    <rect width="100" height="100" fill="#1e2228" rx="12"/>

    <!-- Scaled aperture icon -->
    <g transform="translate(10, 10) scale(2.5)">
      <!-- Outer lens ring: primary -->
      <path d="M16 4a12 12 0 1 0 0 24 12 12 0 0 0 0-24zm0 3a9 9 0 1 1 0 18 9 9 0 0 1 0-18z" fill="#4c759f"/>
      
      <!-- Inner aperture blades with hexagonal cutout: secondary -->
      <path d="M16 8a8 8 0 1 0 0 16 8 8 0 0 0 0-16zm0 3l4.3 2.5v5L16 21l-4.3-2.5v-5z" fill="#7392b3" fill-rule="evenodd"/>
      
      <!-- Accent highlight -->
      <circle cx="23.5" cy="8.5" r="1.5" fill="#d6a54d"/>
    </g>

    <!-- Text positioned next to icon -->
    <g transform="translate(124, -26)">
      <path d="M 23.36,100 H 13.568 V 62.432 H 1.216 v -8.128 h 34.496 v 8.128 H 23.36 Z M 70.592027,65.056 V 100 h -7.424 l -1.216,-4.48 h -0.576 q -1.664,2.688 -4.544,3.904 -2.88,1.216 -6.208,1.216 -5.568,0 -9.024,-3.008 -3.392,-3.072 -3.392,-9.792 V 65.056 h 9.728 v 20.352 q 0,3.712 1.28,5.632 1.344,1.856 4.224,1.856 4.352,0 5.888,-2.944 1.6,-2.944 1.6,-8.512 V 65.056 Z m 28.735976,-0.64 q 0.959997,0 2.047997,0.128 1.088,0.128 1.792,0.256 l -0.96,9.024 q -0.704,-0.192 -1.664,-0.256 -0.959997,-0.128 -2.303997,-0.128 -1.984,0 -3.968,0.832 -1.984,0.832 -3.328,2.752 -1.28,1.92 -1.28,5.248 V 100 h -9.664 V 65.056 h 7.36 l 1.408,5.888 h 0.448 q 1.536,-2.688 4.16,-4.608 2.688,-1.92 5.952,-1.92 z m 18.944037,-1.728 q 0,1.984 -0.128,3.776 -0.128,1.792 -0.256,3.136 h 0.384 q 1.408,-2.176 3.776,-3.648 2.368,-1.536 6.144,-1.536 5.824,0 9.472,4.608 3.648,4.544 3.648,13.44 0,8.96 -3.712,13.568 -3.648,4.608 -9.664,4.608 -3.84,0 -6.08,-1.344 -2.176,-1.408 -3.584,-3.072 h -0.64 l -1.6,3.776 h -7.424 V 51.36 h 9.664 z m 6.784,9.408 q -3.648,0 -5.248,2.304 -1.536,2.304 -1.536,7.232 v 1.152 q 0,4.992 1.472,7.552 1.536,2.496 5.44,2.496 3.136,0 4.736,-2.688 1.6,-2.688 1.6,-7.808 0,-10.24 -6.464,-10.24 z m 56.25599,10.368 q 0,8.704 -4.608,13.44 -4.544,4.736 -12.416,4.736 -4.928,0 -8.768,-2.112 -3.776,-2.112 -5.952,-6.144 -2.176,-4.096 -2.176,-9.92 0,-8.704 4.544,-13.376 4.608,-4.672 12.544,-4.672 4.928,0 8.704,2.112 3.776,2.048 5.952,6.08 2.176,4.032 2.176,9.856 z m -24.064,0 q 0,5.12 1.664,8 1.664,2.816 5.504,2.816 3.712,0 5.376,-2.816 1.664,-2.88 1.664,-8 0,-5.184 -1.664,-7.936 -1.664,-2.752 -5.44,-2.752 -3.776,0 -5.44,2.752 -1.664,2.752 -1.664,7.936 z m 46.912,-28.16 q 8.832,0 13.056,3.712 4.224,3.648 4.224,10.368 0,4.032 -1.664,7.552 -1.664,3.52 -5.568,5.696 -3.84,2.176 -10.432,2.176 h -4.16 V 100 h -9.792 V 54.304 Z m -0.32,8 h -4.224 v 13.44 h 3.264 q 4.032,0 6.336,-1.6 2.368,-1.6 2.368,-5.44 0,-3.072 -1.92,-4.736 -1.856,-1.664 -5.824,-1.664 z m 29.88802,-11.008 q 2.112,0 3.648,1.024 1.6,0.96 1.6,3.712 0,2.624 -1.6,3.648 -1.536,1.024 -3.648,1.024 -2.176,0 -3.712,-1.024 -1.536,-1.024 -1.536,-3.648 0,-2.752 1.536,-3.712 1.536,-1.024 3.712,-1.024 z m 4.8,13.76 V 100 h -9.664 V 65.056 Z m 16.89599,17.088 -11.264,-17.088 h 10.816 l 6.784,11.136 6.848,-11.136 h 10.816 l -11.392,17.088 11.904,17.856 h -10.816 l -7.36,-11.968 -7.36,11.968 h -10.816 z" fill="#f0eeeb"/>
    </g>
  </g>
</svg>
